<?xml version="1.0" encoding="UTF-8"?>
<svg id="Camada_2" data-name="Camada 2" xmlns="http://www.w3.org/2000/svg" viewBox="0 0 149.97 218.9">
  <g id="Camada_1-2" data-name="Camada 1">
    <g>
      <g>
        <rect y="84.24" width="126.01" height="11.78"/>
        <path d="M126.01,63v7.33H0v-7.33c0-.5,0-1,.03-1.5h125.96c.03.5.03,1,.03,1.5Z"/>
        <path d="M123.69,46.06H2.32c.55-2.03,1.21-3.98,1.98-5.9h117.42c.76,1.92,1.42,3.87,1.98,5.9Z"/>
        <path d="M112.57,24.16H13.47c1.16-1.53,2.42-3,3.77-4.4h91.57c1.34,1.4,2.61,2.87,3.77,4.4Z"/>
        <path d="M88.59,5.43h-51.15C45.24,1.92,53.91,0,63,0s17.76,1.92,25.59,5.43Z"/>
        <path d="M126.01,144.77v11.12c0,.58,0,1.16-.05,1.71H.05c-.05-.55-.05-1.13-.05-1.71v-11.12h126.01Z"/>
        <path d="M124.85,168.06c-.66,3.32-1.58,6.53-2.71,9.64H3.87c-1.13-3.11-2.06-6.32-2.69-9.64h123.66Z"/>
        <path d="M115.07,191.39c-1.53,2.24-3.19,4.37-5.01,6.4H15.97c-1.82-2.03-3.48-4.16-5.01-6.4h104.11Z"/>
        <path d="M88.25,213.63c-7.72,3.4-16.26,5.27-25.24,5.27s-17.47-1.87-25.19-5.27h50.43Z"/>
      </g>
      <polygon points="149.97 128.76 0 132.13 0 108.11 149.97 111.48 149.97 128.76"/>
    </g>
  </g>
</svg>