<?xml version="1.0" encoding="UTF-8"?>
<svg id="Camada_2" data-name="Camada 2" xmlns="http://www.w3.org/2000/svg" viewBox="0 0 249.1 73.32">
  <g id="Camada_1-2" data-name="Camada 1">
    <g>
      <path d="M53.24,15.52h-.34c-10.62,0-16.18,5.65-16.18,16.95v12.53c0,11.22,5.39,16.79,15.83,16.79h1.05c10.43,0,15.83-5.57,15.83-16.79v-12.53c0-11.31-5.57-16.95-16.18-16.95ZM57.24,46.75c0,3.74-1.48,4.95-4.18,4.95s-4.17-1.21-4.17-4.95v-16.09c0-3.65,1.39-5.13,4.17-5.13s4.18,1.48,4.18,5.13v16.09Z"/>
      <path d="M22.96,2.5c-2.5,0-22.96-.03-22.96-.03v59.14h12.18s-1.41-22-1.5-26.1h1.5c.69,8.53,3.92,11.91,10.35,11.91,6.87,0,10-4.08,10-12.18V13.09c0-7.83-2.96-10.58-9.56-10.58ZM20.35,31.69c0,3.4-1.21,4.96-3.92,4.96-2.87,0-4.35-1.92-4.35-6.18v-12.09c0-4.36,1.39-6.18,4.27-6.18.12,0,.23,0,.34.01,2.54.12,3.65,1.7,3.65,4.94v14.53Z"/>
      <path d="M125.44,27.65c-7.49-5.39-8.7-7.04-8.7-14.17,0-6,1.83-8.53,6.35-8.53,4.86,0,6.78,2.78,6.78,11.22v3.31h5.74v-3.13c0-10.7-3.74-16.35-11.82-16.35h-.52c-8.44,0-12.01,4.69-12.01,14.26s3.31,12.61,10.36,17.82c7.39,5.39,8.6,6.96,8.6,14.53,0,6.87-1.3,9.75-6.52,9.75-4.79,0-6.87-2.7-6.87-10.88v-3.74h-5.74v3.47c0,11.05,3.47,16.18,12,16.18h.69c8.6,0,12-4.61,12-15.22s-2.69-12.96-10.35-18.53Z"/>
      <path d="M154.94,15.65c-5.22,0-8.35,2.96-9.04,9.83h-.98c.09-3.13.98-8.69.98-8.69h-5.48v56.53h5.48s-.81-18.78-.98-22.35h.98c.78,7.3,3.92,10.26,9.22,10.26,5.91,0,9.31-3.74,9.31-11.57v-22.17c0-8.18-3.31-11.83-9.49-11.83ZM158.94,47.75c0,5.82-2.08,8.35-6.18,8.35-4.7,0-6.96-3.74-6.96-11.05v-13.21c0-7.22,2.26-11.14,6.96-11.14,4.09,0,6.18,2.53,6.18,8.35v18.71Z"/>
      <path d="M181.91,15.65h-.34c-7.65,0-11.23,4.7-11.23,14.1v.25h5.31v-.78c0-6.61,2.01-8.78,6.26-8.78s5.91,2.6,5.91,8.78v6.35h-3.65c-11.13,0-15.13,4.35-15.13,14.09,0,8.18,3.56,11.57,9.4,11.57,5.47,0,8.6-3.04,9.39-10.26h.97c-.18,3.56-.97,9.3-.97,9.3h5.48v-30.35c0-9.83-3.65-14.26-11.39-14.26ZM187.91,45.22c0,7.65-2.51,10.88-7.39,10.88-3.47,0-5.82-1.92-5.82-6.78v-.87c0-5.82,2.69-8.44,9.3-8.44h3.92v5.22Z"/>
      <path d="M209.59,15.65h-.26c-7.65,0-11.39,4.88-11.39,14.53v16.96c0,9.56,3.49,14.44,11.14,14.44h.69c7.48,0,10.61-4.88,10.61-14.44v-2.82l-5.04,1.56v2.39c0,6.26-2.1,8.44-5.92,8.44s-6-2.17-6-8.44v-19.22c0-6.17,2.01-8.6,6-8.6s5.92,2.35,5.92,8.6v4.37l5.04-1.4v-1.83c0-9.74-3.4-14.53-10.79-14.53Z"/>
      <path d="M249.1,37.3v-6.95c0-9.83-3.83-14.61-11.83-14.61h-.25c-8.01,0-12.01,4.79-12.01,14.61v16.88c0,9.74,3.74,14.44,11.75,14.44h.78c8,0,11.57-4.7,11.57-14.18v-2.34l-5.48,1.56v1.65c0,6.44-2.26,8.44-6.53,8.44s-6.61-2-6.61-8.44v-6l18.62-5.05ZM230.48,29.13c0-6.25,2.26-8.6,6.61-8.6s6.53,2.35,6.53,8.6v4.95l-13.14,3.57v-8.53Z"/>
      <path d="M95.84,28.57h-1.5c-.69-8.53-3.92-11.91-10.35-11.91-6.87,0-10,4.08-10,12.18v22.17c0,7.83,2.96,10.58,9.56,10.58,2.5,0,22.96.03,22.96.03V2.48h-12.18s1.41,22,1.5,26.1ZM94.43,45.7c0,4.36-1.39,6.18-4.27,6.18-.12,0-.23,0-.34-.01-2.54-.12-3.65-1.7-3.65-4.94v-14.53c0-3.4,1.21-4.96,3.92-4.96,2.87,0,4.35,1.92,4.35,6.18v12.09Z"/>
    </g>
  </g>
</svg>